<svg xmlns="http://www.w3.org/2000/svg" viewBox="0 0 24.36 24.36"><defs><style>.cls-1{fill:#fff;}.cls-2{fill:#000060;}</style></defs><g id="Layer_2" data-name="Layer 2"><g id="Layer_1-2" data-name="Layer 1"><rect class="cls-1" x="0.13" y="0.12" width="24.11" height="24.11" rx="2.88"/><path class="cls-2" d="M21.35.25A2.76,2.76,0,0,1,24.11,3V21.35a2.77,2.77,0,0,1-2.76,2.76H3A2.77,2.77,0,0,1,.25,21.35V3A2.76,2.76,0,0,1,3,.25H21.35m0-.25H3A3,3,0,0,0,0,3V21.35a3,3,0,0,0,3,3H21.35a3,3,0,0,0,3-3V3a3,3,0,0,0-3-3Z"/></g></g></svg>